<svg id="6VWovj-yT" viewBox="0 0 370.1851851851852 82.40967812141724" height="82.40967812141724" width="370.1851851851852" style="width: 370.185px; height: 82.4097px; position: absolute; top: 50%; left: 50%; z-index: 0; cursor: pointer; overflow: visible; transform: translate(-50%, -50%) scale(0.596998);"><defs id="SvgjsDefs1037"></defs><g id="SvgjsG1038" featurekey="hmhgWD-0" transform="matrix(0.7120010727198081,0,0,0.7120010727198081,-2.754087223950976,20.750382915223604)" fill="#252a34"><metadata xmlns="http://www.w3.org/2000/svg"><!--?xpacket begin="&;" id="W5M0MpCehiHzreSzNTczkc9d"?--><x:xmpmeta xmlns:x="adobe:ns:meta/" x:xmptk="Adobe XMP Core 5.5-c014 79.151739, 2013/04/03-12:12:15        "></x:xmpmeta><!--?xpacket end="w"?--></metadata><path xmlns="http://www.w3.org/2000/svg" d="M94.7,47.1l0-0.7l-0.2-0.1l-0.9-0.3l-0.1,0L90,44.9l-3.5,1.5l-0.7,0.2L62.9,57.2l-4,1.9L54,61.2l-0.1,0l-0.3-0.1l-2.8-0.7  l-5.4-1.5l-2-0.7l-0.1,0l-3.2-0.9l-0.8-0.2l-0.2-0.1l-0.4-0.1l-0.1,0l-3.7-1l-16-4.4l-0.3-0.1l-4-1.2c0,0,0-0.1-0.1-0.1  c-3.5-3.1-2.7-8.6-1-12.5l17.1,5l0.1,0l0.1,0l3.7,1.1l0.1,0l0.4,0.1l4,1.2l0.5,0.2l1.2,0.3l4.2,1.2l0.6,0.2l0.3,0.1l2.4,0.8l1.9,0.6  l1.4,0.4l0.1,0l1.2,0.3l0.6,0.2l0.4-0.2l2.5-1.2l0.4-0.2l0.2-0.1l5.2-2.3l8-3.6l0.6-0.2l3.5-1.5l14.8-6.6l0.4-0.2l3.9-1.7l0-0.2  l0.4-0.2l-0.2-2.9L51.1,15.8L11,33.8c-0.5,0.3-1,0.8-1.3,1.2c-4.5,4.1-3.1,13.1,0.1,17.4L8,53.2c-0.5,0.3-1,0.8-1.3,1.2  C1.3,59.5,4.5,71.6,9,73.8l42.9,12.8l40-17.9l0-0.2l-0.1-2.1l0-0.7l-0.2-0.1l-0.9-0.3l-0.1,0L87,64.2L51,80.5l-0.1,0l-0.2-0.1  l-35-9.5l-4-1.2c0,0,0,0-0.1-0.1c-3.6-3-2.8-8.6-1-12.6L28,62.2l3.9,1.2l17,5.1l0.1,0l1.7,0.5l0.4-0.2l3.2-1.4l17.3-7.7L86.5,53  l0.4-0.2l3.9-1.7l0-0.1l4.1-1.9L94.7,47.1z M49.3,20.5l32.2,9.7l-5.3,2.2l-31.5-9.5L49.3,20.5z M40.3,24.5l32.2,9.7l-5.3,2.2  l-31.5-9.5L40.3,24.5z"></path></g><g id="SvgjsG1039" featurekey="1RRcwp-0" transform="matrix(2.605858361302844,0,0,2.605858361302844,81.09121307933079,16.13683431311373)" fill="#252a34"><path d="M15.08 20 l-3.34 0 l-5.3 -7.44 l-2.28 2.16 l0 5.28 l-2.66 0 l0 -14.24 l2.66 0 l0 5.34 l5.68 -5.34 l3.84 0 l-5.22 4.94 z M19.44 20 l-2.6 0 l0 -9.16 l2.6 0 l0 9.16 z M18.14 9.74 c-0.86 0 -1.56 -0.7 -1.56 -1.54 c0 -0.42 0.16 -0.8 0.46 -1.08 c0.3 -0.3 0.68 -0.46 1.1 -0.46 c0.84 0 1.54 0.7 1.54 1.54 s-0.7 1.54 -1.54 1.54 z M28.68 20 l-2.4 0 c-0.88 0 -1.7 -0.34 -2.3 -0.94 c-0.62 -0.62 -0.94 -1.42 -0.94 -2.3 l0 -3.8 l-1.28 0 l0 -2.06 l1.28 0 l0 -3.6 l2.38 0 l0 3.6 l2.66 0 l0 2.06 l-2.66 0 l0 3.76 c0 0.5 0.44 0.96 0.88 0.96 l1.74 0 z M34.16 20.18 c-1.26 0 -2.46 -0.48 -3.38 -1.38 c-0.9 -0.92 -1.4 -2.12 -1.4 -3.38 s0.5 -2.46 1.4 -3.38 c0.9 -0.9 2.1 -1.38 3.38 -1.38 c0.84 0 1.6 0.3 2.26 0.9 l0.1 0.08 l0 -0.8 l2.42 0 l0 9.16 l-2.42 0 l0 -0.72 l-0.1 0.1 c-0.72 0.7 -1.54 0.8 -2.26 0.8 z M34.16 13 c-1.28 0 -2.36 1.12 -2.36 2.42 c0 1.32 1.08 2.42 2.36 2.42 s2.36 -1.1 2.36 -2.42 c0 -1.3 -1.08 -2.42 -2.36 -2.42 z M46.199999999999996 10.66 c1.26 0 2.46 0.48 3.38 1.38 c0.9 0.92 1.4 2.12 1.4 3.38 s-0.5 2.46 -1.4 3.38 c-0.9 0.9 -2.1 1.38 -3.38 1.38 c-0.84 0 -1.6 -0.3 -2.26 -0.9 l-0.1 -0.08 l0 6.12 l-2.42 0 l0 -14.48 l2.42 0 l0 0.72 l0.1 -0.1 c0.72 -0.7 1.54 -0.8 2.26 -0.8 z M46.199999999999996 17.84 c1.28 0 2.36 -1.12 2.36 -2.42 c0 -1.32 -1.08 -2.42 -2.36 -2.42 s-2.36 1.1 -2.36 2.42 c0 1.3 1.08 2.42 2.36 2.42 z M59.699999999999996 20.2 c-4.1 0 -7.44 -3.32 -7.44 -7.42 c0 -4.12 3.34 -7.46 7.44 -7.46 c4.12 0 7.46 3.34 7.46 7.46 c0 4.1 -3.34 7.42 -7.46 7.42 z M59.699999999999996 7.98 c-2.62 0 -4.76 2.14 -4.76 4.8 c0 2.64 2.14 4.78 4.76 4.78 s4.76 -2.14 4.76 -4.78 c0 -2.66 -2.14 -4.8 -4.76 -4.8 z M77.78 20 l-2.52 0 l0 -4.9 c0 -1.08 -0.86 -1.92 -1.94 -1.92 c-1.04 0 -1.94 0.86 -1.94 1.92 l0 4.9 l-2.5 0 l0 -9.16 l2.5 0 l0 0.66 c0.62 -0.62 1.28 -0.84 1.94 -0.84 c1.2 0 2.32 0.46 3.16 1.28 c0.84 0.86 1.3 1.98 1.3 3.16 l0 4.9 z M82.80000000000001 20 l-2.6 0 l0 -14.68 l2.6 0 l0 14.68 z M88.46000000000001 20 l-2.6 0 l0 -9.16 l2.6 0 l0 9.16 z M87.16000000000001 9.74 c-0.86 0 -1.56 -0.7 -1.56 -1.54 c0 -0.42 0.16 -0.8 0.46 -1.08 c0.3 -0.3 0.68 -0.46 1.1 -0.46 c0.84 0 1.54 0.7 1.54 1.54 s-0.7 1.54 -1.54 1.54 z M100.36000000000001 20 l-2.52 0 l0 -4.9 c0 -1.08 -0.86 -1.92 -1.94 -1.92 c-1.04 0 -1.94 0.86 -1.94 1.92 l0 4.9 l-2.5 0 l0 -9.16 l2.5 0 l0 0.66 c0.62 -0.62 1.28 -0.84 1.94 -0.84 c1.2 0 2.32 0.46 3.16 1.28 c0.84 0.86 1.3 1.98 1.3 3.16 l0 4.9 z M106.48000000000002 20.22 l-0.02 0 c-0.58 0 -1.18 -0.14 -1.74 -0.4 c-0.52 -0.22 -1 -0.58 -1.44 -1.04 c-0.7 -0.76 -1.12 -1.76 -1.22 -2.8 c-0.02 -0.18 -0.04 -0.36 -0.04 -0.56 c0 -0.4 0.06 -0.82 0.16 -1.24 c0.18 -0.8 0.56 -1.54 1.1 -2.1 c0.4 -0.44 0.86 -0.78 1.44 -1.06 c0.54 -0.26 1.14 -0.38 1.76 -0.38 c0.64 0 1.22 0.12 1.76 0.38 c0.6 0.28 1.08 0.64 1.44 1.06 c0.52 0.56 0.92 1.28 1.12 2.1 c0.1 0.38 0.14 0.78 0.14 1.24 l0 0.46 l-6.72 0 l0.02 0.14 c0.26 1.24 1.2 2.14 2.24 2.14 l0.02 0 c0.58 -0.04 1.22 -0.4 1.6 -0.72 l0.22 -0.18 l1.66 1.44 l-0.3 0.26 c-0.22 0.2 -0.5 0.44 -0.8 0.6 l-0.02 0 c-0.72 0.42 -1.5 0.64 -2.38 0.66 z M106.48000000000002 12.719999999999999 c-0.78 0 -1.56 0.54 -1.98 1.38 l-0.08 0.16 l4.14 0 l-0.08 -0.16 c-0.46 -0.86 -1.22 -1.38 -2 -1.38 z"></path></g></svg>
